<svg width="152" height="152" viewBox="0 0 152 152" fill="none" xmlns="http://www.w3.org/2000/svg">
<path d="M76 152C91.0314 152 105.725 147.543 118.223 139.192C130.721 130.841 140.463 118.971 146.215 105.084C151.967 91.1968 153.472 75.9157 150.54 61.1732C147.607 46.4306 140.369 32.8887 129.74 22.2599C119.111 11.6311 105.569 4.39283 90.8269 1.46035C76.0843 -1.47213 60.8032 0.0329243 46.9161 5.78518C33.0289 11.5374 21.1593 21.2785 12.8083 33.7767C4.45733 46.2748 2.26968e-06 60.9686 0 76H31.5571C31.5571 67.21 34.1637 58.6175 39.0471 51.3089C43.9305 44.0003 50.8716 38.3039 58.9924 34.9402C67.1133 31.5764 76.0493 30.6963 84.6704 32.4111C93.2914 34.126 101.21 38.3587 107.426 44.5742C113.641 50.7896 117.874 58.7086 119.589 67.3296C121.304 75.9507 120.424 84.8867 117.06 93.0076C113.696 101.128 108 108.069 100.691 112.953C93.3825 117.836 84.7899 120.443 76 120.443V152Z" fill="#3F9142"/>
</svg>
