<svg width="76" height="76" viewBox="0 0 76 76" fill="none" xmlns="http://www.w3.org/2000/svg">
<path d="M3.72478e-05 2.01359e-06C3.63753e-05 9.98046 1.96583 19.8632 5.78519 29.0839C9.60455 38.3047 15.2027 46.6829 22.2599 53.7401C29.3172 60.7974 37.6953 66.3955 46.9161 70.2148C56.1368 74.0342 66.0196 76 76 76L76 44.4429C70.1637 44.4429 64.3845 43.2933 58.9925 41.0599C53.6004 38.8264 48.7011 35.5528 44.5742 31.4259C40.4473 27.299 37.1736 22.3996 34.9402 17.0076C32.7067 11.6155 31.5572 5.83632 31.5572 4.7724e-06L3.72478e-05 2.01359e-06Z" fill="#142E15"/>
</svg>
