<svg width="153" height="153" viewBox="0 0 153 153" fill="none" xmlns="http://www.w3.org/2000/svg">
<path d="M76.6676 152.354C91.6567 152.354 106.309 147.909 118.772 139.581C131.235 131.254 140.949 119.418 146.685 105.57C152.421 91.7216 153.922 76.4835 150.997 61.7825C148.073 47.0814 140.855 33.5776 130.256 22.9787C119.658 12.3799 106.154 5.16193 91.4527 2.2377C76.7517 -0.686521 61.5136 0.814295 47.6655 6.55037C33.8174 12.2864 21.9812 22.0001 13.6537 34.4631C5.32625 46.9261 0.881472 61.5785 0.88147 76.5676L32.3498 76.5676C32.3498 67.8024 34.949 59.234 39.8187 51.946C44.6884 44.6579 51.6099 38.9776 59.7079 35.6233C67.8059 32.269 76.7168 31.3914 85.3136 33.1014C93.9104 34.8114 101.807 39.0322 108.005 45.2302C114.203 51.4282 118.424 59.3248 120.134 67.9216C121.844 76.5185 120.966 85.4293 117.612 93.5273C114.258 101.625 108.577 108.547 101.289 113.417C94.0012 118.286 85.4328 120.885 76.6676 120.885L76.6676 152.354Z" fill="#3F9142"/>
</svg>
