<svg width="24" height="24" viewBox="0 0 24 24" fill="none" xmlns="http://www.w3.org/2000/svg">
<path d="M14.8487 15.6596C17.2577 15.6596 19.2173 13.7 19.2173 11.2922C19.2173 8.88203 17.2571 6.92243 14.8487 6.92243C12.4397 6.92243 10.4795 8.88263 10.4795 11.2922C10.4795 13.7 12.4397 15.6596 14.8487 15.6596ZM14.8487 7.64123C15.8163 7.64266 16.7437 8.02777 17.4277 8.71209C18.1117 9.39642 18.4964 10.3241 18.4973 11.2916C18.4962 12.2589 18.1114 13.1862 17.4274 13.8701C16.7434 14.554 15.816 14.9387 14.8487 14.9396C13.8814 14.9387 12.9539 14.5541 12.2698 13.8702C11.5857 13.1863 11.2008 12.259 11.1995 11.2916C11.2001 9.27923 12.8369 7.64123 14.8487 7.64123ZM22.8269 19.7948C22.6355 16.3844 19.5371 16.1756 19.4861 16.1738L10.1909 16.1744C10.1597 16.1756 7.06071 16.385 6.86991 19.8146V22.3994C6.86991 22.4949 6.90784 22.5865 6.97535 22.654C7.04286 22.7215 7.13443 22.7594 7.22991 22.7594H22.4669C22.5624 22.7594 22.654 22.7215 22.7215 22.654C22.789 22.5865 22.8269 22.4949 22.8269 22.3994V19.7948ZM22.1075 22.0394H7.59051L7.58991 19.8344C7.74351 17.0774 10.1303 16.8986 10.2107 16.8932L19.4651 16.8926C19.5665 16.8992 21.9527 17.078 22.1069 19.8146L22.1075 22.0394ZM7.57071 11.3654H7.57311C8.31291 11.36 8.95371 11.0948 9.47751 10.5758C10.0019 10.052 10.2671 9.41123 10.2671 8.67023C10.2671 7.92563 10.0013 7.28363 9.47751 6.76403C8.95311 6.24023 8.31231 5.97443 7.57191 5.97443C6.82731 5.97443 6.18531 6.24023 5.66691 6.76343C5.14251 7.28363 4.87671 7.92563 4.87671 8.67023C4.87671 9.41063 5.14251 10.052 5.66631 10.5752C6.18591 11.0948 6.82611 11.3606 7.57071 11.3654ZM5.98611 7.08203C6.42411 6.63983 6.94371 6.42443 7.57251 6.42443C8.19771 6.42443 8.71731 6.63983 9.16071 7.08383C9.60291 7.52183 9.81831 8.04143 9.81831 8.67083C9.81831 9.29663 9.60291 9.81563 9.16071 10.2572C8.71851 10.6958 8.19831 10.9118 7.57251 10.9166C6.94251 10.9118 6.42291 10.697 5.98491 10.2578C5.54211 9.81623 5.32671 9.29663 5.32671 8.67083C5.32671 8.04083 5.54211 7.52183 5.98611 7.08203Z" fill="black"/>
<path d="M7.22299 9.69001C7.26363 9.72571 7.3159 9.74533 7.36999 9.74521C7.40217 9.74513 7.43396 9.73819 7.46324 9.72484C7.49252 9.71149 7.51862 9.69205 7.53979 9.66781L9.06319 7.92181C9.10233 7.87686 9.12202 7.81819 9.11791 7.75873C9.1138 7.69926 9.08624 7.64386 9.04129 7.60471C8.99633 7.56557 8.93767 7.54588 8.8782 7.54999C8.81873 7.5541 8.76333 7.58166 8.72419 7.62661L7.34839 9.20341L6.67159 8.61841C6.64929 8.59911 6.62341 8.58438 6.59542 8.57508C6.56743 8.56578 6.53788 8.56208 6.50847 8.5642C6.47905 8.56632 6.45033 8.57421 6.42397 8.58742C6.3976 8.60064 6.37409 8.61891 6.35479 8.64121C6.33548 8.66351 6.32076 8.68939 6.31146 8.71738C6.30216 8.74537 6.29846 8.77492 6.30058 8.80433C6.30269 8.83375 6.31058 8.86246 6.3238 8.88883C6.33701 8.9152 6.35529 8.93871 6.37759 8.95801L7.22299 9.69001ZM12.0776 5.88001C12.0776 5.88001 12.182 5.73001 12.4484 5.64001C12.6542 5.57041 12.7856 5.54941 12.7856 5.54941V3.79801C12.7856 3.33721 12.4448 2.93761 11.9252 2.93761H10.6088V3.64561H12.0776V5.88001ZM5.39539 4.67581H9.73999C9.96199 4.67581 10.1702 4.51981 10.1702 4.23721V3.21001C10.1702 2.81881 9.85879 2.49901 9.46819 2.49901H9.30139C9.10819 1.74901 8.37499 1.20001 7.56319 1.20001C6.75139 1.20001 6.01819 1.74901 5.82559 2.49901H5.66719C5.27659 2.49901 4.95679 2.81881 4.95679 3.21001V4.23721C4.95679 4.49161 5.14219 4.67581 5.39539 4.67581ZM7.56319 2.06881C8.04439 2.06881 8.43199 2.45641 8.43199 2.93761C8.43199 3.41881 8.04439 3.80641 7.56319 3.80641C7.44903 3.80665 7.33595 3.78434 7.23043 3.74076C7.12492 3.69718 7.02905 3.6332 6.94832 3.55248C6.8676 3.47175 6.80361 3.37588 6.76004 3.27037C6.71646 3.16485 6.69415 3.05177 6.69439 2.93761C6.69439 2.45641 7.08199 2.06881 7.56319 2.06881Z" fill="black"/>
<path d="M9.57113 13.5345H3.05753V3.64532H4.52633V2.93732H3.21053C2.74973 2.93732 2.35913 3.33632 2.35913 3.79772V13.3905C2.35913 13.8513 2.74973 14.2329 3.21053 14.2329H10.2473C10.2473 14.2335 9.71453 14.0127 9.57113 13.5345Z" fill="black"/>
</svg>
