<svg width="24" height="24" viewBox="0 0 24 24" fill="none" xmlns="http://www.w3.org/2000/svg">
<path d="M22.4232 9.11813C22.3294 8.82988 22.1524 8.57582 21.9145 8.38796C21.6766 8.20011 21.3885 8.08687 21.0863 8.06251L15.5551 7.61626L13.4194 2.45157C13.3039 2.17015 13.1074 1.92943 12.8547 1.76001C12.6021 1.5906 12.3047 1.50014 12.0005 1.50014C11.6963 1.50014 11.399 1.5906 11.1463 1.76001C10.8937 1.92943 10.6971 2.17015 10.5816 2.45157L8.44788 7.61532L2.91381 8.06251C2.61117 8.0881 2.3228 8.20244 2.08485 8.3912C1.8469 8.57996 1.66994 8.83474 1.57615 9.12362C1.48236 9.4125 1.4759 9.72264 1.55759 10.0152C1.63928 10.3077 1.80548 10.5696 2.03538 10.7681L6.25413 14.4084L4.96881 19.8516C4.89693 20.1473 4.91453 20.4577 5.01938 20.7434C5.12423 21.0291 5.3116 21.2772 5.55771 21.4562C5.80382 21.6352 6.09757 21.737 6.40167 21.7488C6.70576 21.7605 7.00649 21.6817 7.26569 21.5222L12.0001 18.6084L16.7373 21.5222C16.9965 21.6798 17.2967 21.7571 17.5998 21.7445C17.903 21.7319 18.1956 21.6298 18.4409 21.4512C18.6861 21.2726 18.8731 21.0254 18.9782 20.7407C19.0832 20.4561 19.1017 20.1467 19.0313 19.8516L17.7413 14.4075L21.9601 10.7672C22.1918 10.569 22.3595 10.3065 22.442 10.013C22.5244 9.71941 22.5179 9.40798 22.4232 9.11813ZM20.9851 9.63095L16.4194 13.5684C16.3153 13.6582 16.2379 13.7748 16.1955 13.9056C16.1532 14.0364 16.1476 14.1763 16.1794 14.31L17.5744 20.1975C17.578 20.2056 17.5784 20.2148 17.5754 20.2232C17.5725 20.2316 17.5664 20.2385 17.5585 20.2425C17.5416 20.2556 17.5369 20.2528 17.5229 20.2425L12.3929 17.0878C12.2747 17.0152 12.1388 16.9767 12.0001 16.9767C11.8614 16.9767 11.7254 17.0152 11.6073 17.0878L6.47725 20.2444C6.46319 20.2528 6.45944 20.2556 6.44163 20.2444C6.43371 20.2403 6.42765 20.2334 6.42468 20.2251C6.42172 20.2167 6.42208 20.2075 6.42569 20.1994L7.82069 14.3119C7.85248 14.1782 7.84691 14.0383 7.80458 13.9075C7.76226 13.7767 7.68481 13.6601 7.58069 13.5703L3.01506 9.63282C3.00381 9.62345 2.9935 9.61501 3.00288 9.58595C3.01225 9.55688 3.01975 9.56063 3.03381 9.55876L9.02631 9.07501C9.16376 9.06322 9.29529 9.01375 9.40644 8.93204C9.51759 8.85033 9.60405 8.73955 9.65631 8.61188L11.9644 3.02344C11.9719 3.00751 11.9748 3.00001 11.9973 3.00001C12.0198 3.00001 12.0226 3.00751 12.0301 3.02344L14.3438 8.61188C14.3966 8.7396 14.4836 8.85026 14.5952 8.93165C14.7069 9.01305 14.8389 9.06201 14.9766 9.07313L20.9691 9.55688C20.9832 9.55688 20.9916 9.55688 21.0001 9.58407C21.0085 9.61126 21.0001 9.62157 20.9851 9.63095Z" fill="black"/>
</svg>
